HIERARCHY
ROOT Hips
{
	OFFSET 0.000000 0.000000 0.000000
	CHANNELS 6 Xposition Yposition Zposition Zrotation Xrotation Yrotation
	JOINT Spine1
	{
		OFFSET 0.000000 -0.000045 277.694702
		CHANNELS 6 Xposition Yposition Zposition Zrotation Xrotation Yrotation
		JOINT Neck
		{
			OFFSET 0.000000 -0.000036 221.388000
			CHANNELS 6 Xposition Yposition Zposition Zrotation Xrotation Yrotation
			JOINT Head
			{
				OFFSET 0.000000 -18.163622 140.768005
				CHANNELS 6 Xposition Yposition Zposition Zrotation Xrotation Yrotation
				End Site
				{
					OFFSET 0.000000 -0.000029 181.635559
				}
			}
		}
		JOINT LeftShoulder
		{
			OFFSET 36.576698 4.801211 178.758972
			CHANNELS 6 Xposition Yposition Zposition Zrotation Xrotation Yrotation
			JOINT LeftArm
			{
				OFFSET 130.515991 0.000000 0.000000
				CHANNELS 6 Xposition Yposition Zposition Zrotation Xrotation Yrotation
				JOINT LeftForeArm
				{
					OFFSET 255.920990 0.000000 0.000000
					CHANNELS 6 Xposition Yposition Zposition Zrotation Xrotation Yrotation
					JOINT LeftHand
					{
						OFFSET 237.844971 0.000000 0.000000
						CHANNELS 6 Xposition Yposition Zposition Zrotation Xrotation Yrotation
						End Site
						{
							OFFSET 136.226685 0.000000 0.000000
						}
					}
				}
			}
		}
		JOINT RightShoulder
		{
			OFFSET -36.072102 4.801211 178.758972
			CHANNELS 6 Xposition Yposition Zposition Zrotation Xrotation Yrotation
			JOINT RightArm
			{
				OFFSET -130.515991 0.000000 0.000000
				CHANNELS 6 Xposition Yposition Zposition Zrotation Xrotation Yrotation
				JOINT RightForeArm
				{
					OFFSET -255.921005 0.000000 0.000000
					CHANNELS 6 Xposition Yposition Zposition Zrotation Xrotation Yrotation
					JOINT RightHand
					{
						OFFSET -237.845032 0.000000 0.000000
						CHANNELS 6 Xposition Yposition Zposition Zrotation Xrotation Yrotation
						End Site
						{
							OFFSET -136.226685 0.000000 0.000000
						}
					}
				}
			}
		}
	}
	JOINT LeftUpLeg
	{
		OFFSET 90.818001 0.000000 0.000000
		CHANNELS 6 Xposition Yposition Zposition Zrotation Xrotation Yrotation
		JOINT LeftLeg
		{
			OFFSET 0.000000 0.000062 -381.949005
			CHANNELS 6 Xposition Yposition Zposition Zrotation Xrotation Yrotation
			JOINT LeftFoot
			{
				OFFSET 0.000000 0.000065 -400.430023
				CHANNELS 6 Xposition Yposition Zposition Zrotation Xrotation Yrotation
				JOINT LeftToeBase
				{
					OFFSET 0.000000 -136.226974 -59.031677
					CHANNELS 6 Xposition Yposition Zposition Zrotation Xrotation Yrotation
					End Site
					{
						OFFSET 0.000000 -36.327118 0.000000
					}
				}
			}
		}
	}
	JOINT RightUpLeg
	{
		OFFSET -90.818001 0.000000 0.000000
		CHANNELS 6 Xposition Yposition Zposition Zrotation Xrotation Yrotation
		JOINT RightLeg
		{
			OFFSET 0.000000 0.000062 -381.949005
			CHANNELS 6 Xposition Yposition Zposition Zrotation Xrotation Yrotation
			JOINT RightFoot
			{
				OFFSET 0.000000 0.000065 -400.430023
				CHANNELS 6 Xposition Yposition Zposition Zrotation Xrotation Yrotation
				JOINT RightToeBase
				{
					OFFSET 0.000000 -136.226974 -59.031677
					CHANNELS 6 Xposition Yposition Zposition Zrotation Xrotation Yrotation
					End Site
					{
						OFFSET 0.000000 -36.327118 0.000000
					}
				}
			}
		}
	}
}
MOTION
Frames: 6
Frame Time: 0.041667
82.292656 10.757683 741.990112 -2.210381 11.477554 -1.159163 -0.000000 -0.000050 277.694702 -0.010676 -6.014959 -5.399386 -0.000022 -0.000037 221.388031 3.441823 5.320265 -3.455728 0.000030 -18.163603 140.768188 4.133098 7.340054 4.076732 36.576683 4.801215 178.759018 0.357274 -8.656443 -21.287855 130.515976 -0.000023 -0.000035 -6.651289 -10.376160 10.894593 255.921021 -0.000012 0.000110 -0.976673 -8.404873 -1.663201 237.845016 -0.000030 0.000245 3.889938 -8.169255 7.417984 -36.072094 4.801211 178.759140 -5.675596 -4.098220 18.038805 -130.516022 -0.000011 0.000150 21.626792 21.095874 -3.228914 -255.920975 -0.000006 0.000011 70.310063 37.849787 47.252058 -237.845139 -0.000007 -0.000019 5.917281 5.837976 26.370689 90.818001 0.000000 0.000061 20.492820 -33.167047 -14.798841 0.000007 0.000077 -381.949005 9.851994 40.006276 8.396072 -0.000013 0.000021 -400.429993 18.340880 -6.291919 3.884688 0.000020 -136.226944 -59.031673 -0.000001 -0.000002 0.000000 -90.818001 0.000002 0.000053 5.498383 -24.044259 43.107957 -0.000016 0.000060 -381.949066 -22.463492 41.388556 -29.123042 -0.000007 0.000041 -400.429962 -17.649117 5.218942 -4.501547 -0.000016 -136.226990 -59.031670 -0.000002 -0.000002 0.000002 
82.863525 10.519823 742.622986 -2.311313 11.463400 -1.138799 -0.000006 -0.000050 277.694794 0.034308 -6.031469 -5.428998 0.000007 -0.000029 221.388092 3.442406 5.344193 -3.485728 -0.000034 -18.163536 140.767914 4.137937 7.356252 4.123995 36.576702 4.801216 178.758972 0.360055 -8.664045 -21.304069 130.515991 -0.000005 0.000085 -6.633874 -10.251523 10.962305 255.921021 0.000015 0.000043 -1.024185 -8.482209 -1.717486 237.845108 0.000035 0.000155 3.941805 -8.245029 7.401704 -36.072102 4.801219 178.759033 -5.674772 -4.085226 18.035944 -130.516006 -0.000013 0.000068 21.647487 21.125410 -3.222832 -255.920914 -0.000103 -0.000144 70.275994 37.819782 47.265029 -237.845078 -0.000034 0.000058 5.935197 5.819134 26.412958 90.818008 0.000008 0.000103 20.518080 -33.008586 -14.765216 0.000030 0.000075 -381.949066 9.981271 39.843909 8.329446 0.000004 0.000071 -400.429993 18.336630 -6.250379 3.837713 0.000005 -136.226974 -59.031681 -0.000000 0.000001 0.000000 -90.818008 0.000000 0.000015 5.445075 -24.014472 43.378357 -0.000005 0.000067 -381.949005 -22.550187 41.436449 -29.252601 0.000007 0.000070 -400.430023 -17.095740 6.097338 -4.882120 0.000000 -136.226959 -59.031670 -0.000001 -0.000003 0.000002 
83.376587 10.303097 743.248657 -2.413221 11.442782 -1.139352 -0.000004 -0.000071 277.694672 0.112059 -6.118398 -5.422632 0.000024 -0.000033 221.388077 3.429566 5.439052 -3.530675 0.000043 -18.163528 140.768021 4.125510 7.398431 4.155482 36.576736 4.801203 178.758987 0.367016 -8.613078 -21.298313 130.516022 0.000006 -0.000003 -6.643298 -10.278549 10.991918 255.921051 0.000032 -0.000019 -1.025780 -8.467064 -1.736357 237.844971 -0.000028 -0.000071 3.926694 -8.230370 7.420848 -36.072090 4.801216 178.759079 -5.695545 -4.030849 17.988425 -130.516022 -0.000010 -0.000356 21.679015 21.154137 -3.211807 -255.920975 -0.000001 0.000156 70.289641 37.799196 47.227866 -237.845093 0.000062 0.000061 5.958044 5.821365 26.387314 90.818001 -0.000004 0.000019 20.577927 -32.840004 -14.691412 0.000014 0.000083 -381.949066 10.105262 39.668444 8.244779 -0.000006 0.000092 -400.429932 18.350106 -6.177754 3.861369 0.000006 -136.226913 -59.031673 -0.000002 -0.000001 -0.000001 -90.818008 -0.000013 -0.000015 5.418723 -23.953506 43.659420 -0.000058 0.000071 -381.949036 -22.611521 41.439874 -29.380967 0.000006 0.000087 -400.430054 -16.564901 6.931771 -5.268231 -0.000008 -136.226929 -59.031677 0.000003 0.000000 0.000000 
83.830917 10.173995 743.918457 -2.514713 11.432730 -1.114500 0.000006 -0.000043 277.694763 0.160570 -6.142685 -5.452066 0.000012 -0.000037 221.387894 3.436521 5.451264 -3.530280 -0.000023 -18.163570 140.767838 4.130757 7.437853 4.150501 36.576740 4.801215 178.758957 0.366569 -8.614504 -21.298500 130.516037 0.000004 0.000254 -6.600309 -10.410306 10.990538 255.921005 -0.000001 -0.000022 -0.995840 -8.379967 -1.684796 237.845047 -0.000046 0.000107 3.922995 -8.142309 7.428641 -36.072094 4.801207 178.759033 -5.725789 -4.008224 17.979754 -130.516052 -0.000001 0.000057 21.740958 21.141710 -3.205942 -255.920990 0.000003 -0.000027 70.263447 37.779603 47.219123 -237.845078 -0.000049 0.000124 5.918411 5.812965 26.359833 90.818008 0.000000 0.000063 20.600306 -32.704964 -14.661372 -0.000054 0.000037 -381.949066 10.340628 39.519188 8.094913 -0.000028 0.000046 -400.430023 18.271601 -6.084479 3.870142 0.000014 -136.226959 -59.031677 -0.000002 0.000000 -0.000001 -90.818001 0.000004 0.000084 5.452676 -23.874397 43.893907 -0.000035 0.000059 -381.949097 -22.812101 41.448573 -29.401659 -0.000018 0.000059 -400.430023 -16.052857 7.757273 -5.764822 -0.000017 -136.226974 -59.031742 -0.000007 0.000002 -0.000000 
84.278320 9.950204 744.506287 -2.607877 11.410686 -1.096338 0.000000 -0.000037 277.694702 0.180697 -6.139841 -5.488386 0.000009 -0.000041 221.387955 3.448282 5.477282 -3.498640 0.000009 -18.163637 140.768250 4.138237 7.424329 4.129460 36.576714 4.801215 178.758926 0.370718 -8.647456 -21.271347 130.516006 0.000013 -0.000048 -6.563866 -10.436860 10.977073 255.920975 0.000008 0.000104 -0.981669 -8.395782 -1.658631 237.845093 0.000016 0.000014 3.903092 -8.157869 7.461346 -36.072083 4.801217 178.759003 -5.687987 -4.049823 18.005762 -130.516022 -0.000005 -0.000022 21.750025 21.110033 -3.231136 -255.920929 -0.000070 -0.000087 70.366392 37.769481 47.077728 -237.845093 0.000036 0.000093 5.913007 5.856159 26.375040 90.817986 -0.000004 -0.000011 20.651656 -32.547894 -14.597723 -0.000039 0.000056 -381.948975 10.226829 39.332563 8.130784 -0.000008 0.000052 -400.430054 18.437274 -6.042974 3.875911 0.000022 -136.226959 -59.031677 -0.000001 -0.000000 -0.000001 -90.817993 0.000000 0.000004 5.491144 -23.783738 44.158563 0.000007 0.000078 -381.948975 -22.977313 41.487471 -29.469681 0.000003 0.000061 -400.429962 -15.551077 8.607181 -6.191893 0.000011 -136.226944 -59.031734 -0.000002 -0.000002 -0.000001 
84.660889 9.822464 745.117981 -2.696394 11.400091 -1.073877 0.000002 -0.000060 277.694702 0.198416 -6.085311 -5.491127 0.000022 -0.000018 221.388077 3.458140 5.482481 -3.498872 -0.000011 -18.163628 140.768204 4.150446 7.344867 4.129558 36.576740 4.801224 178.759033 0.365623 -8.684446 -21.295029 130.515945 -0.000016 0.000100 -6.515583 -10.423538 10.968817 255.921036 0.000045 0.000266 -0.968074 -8.405973 -1.648028 237.844940 -0.000077 -0.000021 3.908814 -8.167218 7.467229 -36.072071 4.801219 178.759033 -5.610416 -4.099159 18.026671 -130.516037 -0.000032 -0.000147 21.737014 21.177708 -3.287966 -255.921005 -0.000000 -0.000030 70.312734 37.750309 47.146873 -237.845093 -0.000097 -0.000022 5.934847 5.810484 26.352477 90.818008 0.000000 0.000097 20.683556 -32.416498 -14.547944 0.000014 0.000073 -381.949066 10.360436 39.164697 8.018462 -0.000021 0.000113 -400.429962 18.428469 -5.968581 3.876215 0.000018 -136.227020 -59.031677 0.000002 0.000001 -0.000000 -90.818001 -0.000008 0.000046 5.511450 -23.716309 44.370070 -0.000016 0.000078 -381.948975 -22.999417 41.427631 -29.521864 -0.000005 0.000047 -400.430054 -15.074106 9.412827 -6.754967 0.000021 -136.227005 -59.031742 -0.000000 -0.000001 -0.000004 
